<mxfile host="app.diagrams.net" modified="2022-03-08T11:43:37.680Z" agent="5.0 (X11; Linux x86_64) AppleWebKit/537.36 (KHTML, like Gecko) Chrome/99.0.4844.51 Safari/537.36" etag="uqJlOaCtSTTB21s6cmSr" version="16.6.7" type="github">
  <diagram id="eYiehjpygyR9hW4J7-2a" name="Page-1">
    <mxGraphModel dx="1422" dy="809" grid="1" gridSize="10" guides="1" tooltips="1" connect="1" arrows="1" fold="1" page="1" pageScale="1" pageWidth="827" pageHeight="1169" math="0" shadow="0">
      <root>
        <mxCell id="0" />
        <mxCell id="1" parent="0" />
        <mxCell id="G_XHmd365qgL3xUWnn5l-1" value="" style="shape=process;whiteSpace=wrap;html=1;backgroundOutline=1;size=0.12;gradientColor=#F19C99;fillColor=#FFCE9F;gradientDirection=east;" parent="1" vertex="1">
          <mxGeometry x="50" y="40" width="750" height="720" as="geometry" />
        </mxCell>
        <mxCell id="G_XHmd365qgL3xUWnn5l-3" value="&lt;font color=&quot;#143642&quot; face=&quot;agave&quot;&gt;&lt;span style=&quot;font-size: 20px&quot;&gt;&lt;b&gt;Activities management.&lt;/b&gt;&lt;/span&gt;&lt;/font&gt;" style="text;whiteSpace=wrap;html=1;" parent="1" vertex="1">
          <mxGeometry x="140" width="440" height="30" as="geometry" />
        </mxCell>
        <mxCell id="G_XHmd365qgL3xUWnn5l-10" style="edgeStyle=orthogonalEdgeStyle;rounded=0;orthogonalLoop=1;jettySize=auto;html=1;endArrow=none;endFill=0;" parent="1" source="G_XHmd365qgL3xUWnn5l-4" target="G_XHmd365qgL3xUWnn5l-5" edge="1">
          <mxGeometry relative="1" as="geometry">
            <mxPoint x="210" y="240" as="targetPoint" />
            <Array as="points">
              <mxPoint x="95" y="50" />
              <mxPoint x="200" y="50" />
            </Array>
          </mxGeometry>
        </mxCell>
        <mxCell id="G_XHmd365qgL3xUWnn5l-11" style="edgeStyle=orthogonalEdgeStyle;rounded=0;orthogonalLoop=1;jettySize=auto;html=1;entryX=0.25;entryY=1;entryDx=0;entryDy=0;" parent="1" source="G_XHmd365qgL3xUWnn5l-4" target="G_XHmd365qgL3xUWnn5l-6" edge="1">
          <mxGeometry relative="1" as="geometry">
            <Array as="points">
              <mxPoint x="95" y="50" />
              <mxPoint x="293" y="50" />
            </Array>
          </mxGeometry>
        </mxCell>
        <mxCell id="G_XHmd365qgL3xUWnn5l-13" style="edgeStyle=orthogonalEdgeStyle;rounded=0;orthogonalLoop=1;jettySize=auto;html=1;entryX=0.5;entryY=1;entryDx=0;entryDy=0;" parent="1" source="G_XHmd365qgL3xUWnn5l-4" target="G_XHmd365qgL3xUWnn5l-7" edge="1">
          <mxGeometry relative="1" as="geometry">
            <Array as="points">
              <mxPoint x="95" y="50" />
              <mxPoint x="425" y="50" />
            </Array>
          </mxGeometry>
        </mxCell>
        <mxCell id="G_XHmd365qgL3xUWnn5l-15" style="edgeStyle=orthogonalEdgeStyle;rounded=0;orthogonalLoop=1;jettySize=auto;html=1;entryX=0.556;entryY=1.009;entryDx=0;entryDy=0;entryPerimeter=0;" parent="1" source="G_XHmd365qgL3xUWnn5l-4" target="G_XHmd365qgL3xUWnn5l-8" edge="1">
          <mxGeometry relative="1" as="geometry">
            <Array as="points">
              <mxPoint x="95" y="50" />
              <mxPoint x="540" y="50" />
            </Array>
          </mxGeometry>
        </mxCell>
        <mxCell id="G_XHmd365qgL3xUWnn5l-40" style="edgeStyle=orthogonalEdgeStyle;rounded=0;orthogonalLoop=1;jettySize=auto;html=1;entryX=0.5;entryY=1;entryDx=0;entryDy=0;fontColor=#000000;endArrow=none;endFill=0;" parent="1" source="G_XHmd365qgL3xUWnn5l-4" target="G_XHmd365qgL3xUWnn5l-9" edge="1">
          <mxGeometry relative="1" as="geometry">
            <Array as="points">
              <mxPoint x="95" y="50" />
              <mxPoint x="645" y="50" />
            </Array>
          </mxGeometry>
        </mxCell>
        <mxCell id="G_XHmd365qgL3xUWnn5l-4" value="&lt;b&gt;&lt;font style=&quot;background-color: rgb(234 , 107 , 102)&quot; color=&quot;#000000&quot;&gt;Administrator&lt;/font&gt;&lt;/b&gt;" style="shape=umlActor;verticalLabelPosition=bottom;verticalAlign=top;html=1;outlineConnect=0;rounded=0;shadow=0;strokeWidth=1;fillColor=#FAE5C7;fontFamily=agave;strokeColor=#0F8B8D;fontColor=#143642;" parent="1" vertex="1">
          <mxGeometry x="80" y="115" width="30" height="60" as="geometry" />
        </mxCell>
        <mxCell id="Ja9MMm1ga6sStV4R5VPq-14" style="edgeStyle=orthogonalEdgeStyle;curved=1;sketch=0;jumpStyle=sharp;orthogonalLoop=1;jettySize=auto;html=1;entryX=0.107;entryY=0.171;entryDx=0;entryDy=0;entryPerimeter=0;dashed=1;fontColor=#000000;endArrow=classic;endFill=1;" edge="1" parent="1" source="G_XHmd365qgL3xUWnn5l-5" target="Ja9MMm1ga6sStV4R5VPq-1">
          <mxGeometry relative="1" as="geometry">
            <Array as="points">
              <mxPoint x="205" y="300" />
              <mxPoint x="400" y="300" />
              <mxPoint x="400" y="512" />
            </Array>
          </mxGeometry>
        </mxCell>
        <mxCell id="G_XHmd365qgL3xUWnn5l-5" value="" style="rounded=0;whiteSpace=wrap;html=1;shadow=0;fontSize=8;strokeWidth=1;fillColor=#FAE5C7;dashed=1;strokeColor=#0F8B8D;fontFamily=agave;fontColor=#143642;" parent="1" vertex="1">
          <mxGeometry x="160" y="60" width="90" height="170" as="geometry" />
        </mxCell>
        <mxCell id="Ja9MMm1ga6sStV4R5VPq-13" style="edgeStyle=orthogonalEdgeStyle;curved=1;sketch=0;jumpStyle=sharp;orthogonalLoop=1;jettySize=auto;html=1;entryX=0.186;entryY=0.136;entryDx=0;entryDy=0;entryPerimeter=0;dashed=1;fontColor=#000000;endArrow=classic;endFill=1;" edge="1" parent="1" source="G_XHmd365qgL3xUWnn5l-6" target="Ja9MMm1ga6sStV4R5VPq-1">
          <mxGeometry relative="1" as="geometry">
            <Array as="points">
              <mxPoint x="315" y="270" />
              <mxPoint x="430" y="270" />
              <mxPoint x="430" y="380" />
              <mxPoint x="500" y="380" />
              <mxPoint x="500" y="510" />
            </Array>
          </mxGeometry>
        </mxCell>
        <mxCell id="G_XHmd365qgL3xUWnn5l-6" value="" style="rounded=0;whiteSpace=wrap;html=1;shadow=0;fontSize=8;strokeWidth=1;fillColor=#FAE5C7;dashed=1;strokeColor=#0F8B8D;fontFamily=agave;fontColor=#143642;" parent="1" vertex="1">
          <mxGeometry x="270" y="60" width="90" height="170" as="geometry" />
        </mxCell>
        <mxCell id="Ja9MMm1ga6sStV4R5VPq-12" style="edgeStyle=orthogonalEdgeStyle;curved=1;sketch=0;jumpStyle=sharp;orthogonalLoop=1;jettySize=auto;html=1;entryX=0.286;entryY=0.143;entryDx=0;entryDy=0;entryPerimeter=0;dashed=1;fontColor=#000000;endArrow=classic;endFill=1;" edge="1" parent="1" source="G_XHmd365qgL3xUWnn5l-7" target="Ja9MMm1ga6sStV4R5VPq-1">
          <mxGeometry relative="1" as="geometry">
            <Array as="points">
              <mxPoint x="425" y="240" />
              <mxPoint x="480" y="240" />
              <mxPoint x="480" y="280" />
              <mxPoint x="540" y="280" />
              <mxPoint x="540" y="510" />
            </Array>
          </mxGeometry>
        </mxCell>
        <mxCell id="G_XHmd365qgL3xUWnn5l-7" value="" style="rounded=0;whiteSpace=wrap;html=1;shadow=0;fontSize=8;strokeWidth=1;fillColor=#FAE5C7;dashed=1;strokeColor=#0F8B8D;fontFamily=agave;fontColor=#143642;" parent="1" vertex="1">
          <mxGeometry x="380" y="60" width="90" height="170" as="geometry" />
        </mxCell>
        <mxCell id="Ja9MMm1ga6sStV4R5VPq-11" style="edgeStyle=orthogonalEdgeStyle;curved=1;sketch=0;jumpStyle=sharp;orthogonalLoop=1;jettySize=auto;html=1;entryX=0.675;entryY=0;entryDx=0;entryDy=0;entryPerimeter=0;dashed=1;fontColor=#000000;endArrow=classic;endFill=1;" edge="1" parent="1" source="G_XHmd365qgL3xUWnn5l-8" target="Ja9MMm1ga6sStV4R5VPq-1">
          <mxGeometry relative="1" as="geometry">
            <Array as="points">
              <mxPoint x="535" y="240" />
              <mxPoint x="560" y="240" />
              <mxPoint x="560" y="365" />
              <mxPoint x="645" y="365" />
            </Array>
          </mxGeometry>
        </mxCell>
        <mxCell id="G_XHmd365qgL3xUWnn5l-8" value="" style="rounded=0;whiteSpace=wrap;html=1;shadow=0;fontSize=8;strokeWidth=1;fillColor=#FAE5C7;dashed=1;strokeColor=#0F8B8D;fontFamily=agave;fontColor=#143642;" parent="1" vertex="1">
          <mxGeometry x="490" y="60" width="90" height="170" as="geometry" />
        </mxCell>
        <mxCell id="Ja9MMm1ga6sStV4R5VPq-10" style="edgeStyle=orthogonalEdgeStyle;curved=1;sketch=0;jumpStyle=sharp;orthogonalLoop=1;jettySize=auto;html=1;entryX=0.979;entryY=0.386;entryDx=0;entryDy=0;entryPerimeter=0;dashed=1;fontColor=#000000;endArrow=classic;endFill=1;" edge="1" parent="1" source="G_XHmd365qgL3xUWnn5l-9" target="Ja9MMm1ga6sStV4R5VPq-1">
          <mxGeometry relative="1" as="geometry">
            <Array as="points">
              <mxPoint x="645" y="240" />
              <mxPoint x="650" y="240" />
              <mxPoint x="650" y="365" />
              <mxPoint x="687" y="365" />
            </Array>
          </mxGeometry>
        </mxCell>
        <mxCell id="G_XHmd365qgL3xUWnn5l-9" value="" style="rounded=0;whiteSpace=wrap;html=1;shadow=0;fontSize=8;strokeWidth=1;fillColor=#FAE5C7;dashed=1;strokeColor=#0F8B8D;fontFamily=agave;fontColor=#143642;" parent="1" vertex="1">
          <mxGeometry x="600" y="60" width="90" height="170" as="geometry" />
        </mxCell>
        <mxCell id="G_XHmd365qgL3xUWnn5l-16" value="Update Exercise" style="ellipse;whiteSpace=wrap;html=1;rounded=0;shadow=0;strokeWidth=1;fillColor=#FAE5C7;fontSize=8;fontFamily=agave;strokeColor=#0F8B8D;fontColor=#143642;" parent="1" vertex="1">
          <mxGeometry x="170" y="150" width="70" height="30" as="geometry" />
        </mxCell>
        <mxCell id="G_XHmd365qgL3xUWnn5l-17" value="Create Exercise" style="ellipse;whiteSpace=wrap;html=1;rounded=0;shadow=0;strokeWidth=1;fillColor=#FAE5C7;fontSize=8;fontFamily=agave;strokeColor=#0F8B8D;fontColor=#143642;" parent="1" vertex="1">
          <mxGeometry x="170" y="70" width="70" height="30" as="geometry" />
        </mxCell>
        <mxCell id="G_XHmd365qgL3xUWnn5l-18" value="Read Exercise" style="ellipse;whiteSpace=wrap;html=1;rounded=0;shadow=0;strokeWidth=1;fillColor=#FAE5C7;fontSize=8;fontFamily=agave;strokeColor=#0F8B8D;fontColor=#143642;" parent="1" vertex="1">
          <mxGeometry x="170" y="110" width="70" height="30" as="geometry" />
        </mxCell>
        <mxCell id="G_XHmd365qgL3xUWnn5l-19" value="Delete Exercise" style="ellipse;whiteSpace=wrap;html=1;rounded=0;shadow=0;strokeWidth=1;fillColor=#FAE5C7;fontSize=8;fontFamily=agave;strokeColor=#0F8B8D;fontColor=#143642;" parent="1" vertex="1">
          <mxGeometry x="170" y="190" width="70" height="30" as="geometry" />
        </mxCell>
        <mxCell id="G_XHmd365qgL3xUWnn5l-20" value="Create Activity" style="ellipse;whiteSpace=wrap;html=1;rounded=0;shadow=0;strokeWidth=1;fillColor=#FAE5C7;fontSize=8;fontFamily=agave;strokeColor=#0F8B8D;fontColor=#143642;" parent="1" vertex="1">
          <mxGeometry x="280" y="70" width="70" height="30" as="geometry" />
        </mxCell>
        <mxCell id="G_XHmd365qgL3xUWnn5l-21" value="Read Activity" style="ellipse;whiteSpace=wrap;html=1;rounded=0;shadow=0;strokeWidth=1;fillColor=#FAE5C7;fontSize=8;fontFamily=agave;strokeColor=#0F8B8D;fontColor=#143642;" parent="1" vertex="1">
          <mxGeometry x="280" y="110" width="70" height="30" as="geometry" />
        </mxCell>
        <mxCell id="G_XHmd365qgL3xUWnn5l-22" value="Update Activity" style="ellipse;whiteSpace=wrap;html=1;rounded=0;shadow=0;strokeWidth=1;fillColor=#FAE5C7;fontSize=8;fontFamily=agave;strokeColor=#0F8B8D;fontColor=#143642;" parent="1" vertex="1">
          <mxGeometry x="280" y="150" width="70" height="30" as="geometry" />
        </mxCell>
        <mxCell id="G_XHmd365qgL3xUWnn5l-23" value="Delete Activity" style="ellipse;whiteSpace=wrap;html=1;rounded=0;shadow=0;strokeWidth=1;fillColor=#FAE5C7;fontSize=8;fontFamily=agave;strokeColor=#0F8B8D;fontColor=#143642;" parent="1" vertex="1">
          <mxGeometry x="280" y="190" width="70" height="30" as="geometry" />
        </mxCell>
        <mxCell id="G_XHmd365qgL3xUWnn5l-24" value="Create Responsible" style="ellipse;whiteSpace=wrap;html=1;rounded=0;shadow=0;strokeWidth=1;fillColor=#FAE5C7;fontSize=8;fontFamily=agave;strokeColor=#0F8B8D;fontColor=#143642;" parent="1" vertex="1">
          <mxGeometry x="390" y="70" width="70" height="30" as="geometry" />
        </mxCell>
        <mxCell id="G_XHmd365qgL3xUWnn5l-25" value="Read Responsible" style="ellipse;whiteSpace=wrap;html=1;rounded=0;shadow=0;strokeWidth=1;fillColor=#FAE5C7;fontSize=8;fontFamily=agave;strokeColor=#0F8B8D;fontColor=#143642;" parent="1" vertex="1">
          <mxGeometry x="390" y="110" width="70" height="30" as="geometry" />
        </mxCell>
        <mxCell id="G_XHmd365qgL3xUWnn5l-26" value="Update Responsible" style="ellipse;whiteSpace=wrap;html=1;rounded=0;shadow=0;strokeWidth=1;fillColor=#FAE5C7;fontSize=8;fontFamily=agave;strokeColor=#0F8B8D;fontColor=#143642;" parent="1" vertex="1">
          <mxGeometry x="390" y="150" width="70" height="30" as="geometry" />
        </mxCell>
        <mxCell id="G_XHmd365qgL3xUWnn5l-27" value="Delete Responsible" style="ellipse;whiteSpace=wrap;html=1;rounded=0;shadow=0;strokeWidth=1;fillColor=#FAE5C7;fontSize=8;fontFamily=agave;strokeColor=#0F8B8D;fontColor=#143642;" parent="1" vertex="1">
          <mxGeometry x="390" y="190" width="70" height="30" as="geometry" />
        </mxCell>
        <mxCell id="G_XHmd365qgL3xUWnn5l-28" value="Create Participant" style="ellipse;whiteSpace=wrap;html=1;rounded=0;shadow=0;strokeWidth=1;fillColor=#FAE5C7;fontSize=8;fontFamily=agave;strokeColor=#0F8B8D;fontColor=#143642;" parent="1" vertex="1">
          <mxGeometry x="500" y="70" width="70" height="30" as="geometry" />
        </mxCell>
        <mxCell id="G_XHmd365qgL3xUWnn5l-29" value="Read Participant" style="ellipse;whiteSpace=wrap;html=1;rounded=0;shadow=0;strokeWidth=1;fillColor=#FAE5C7;fontSize=8;fontFamily=agave;strokeColor=#0F8B8D;fontColor=#143642;" parent="1" vertex="1">
          <mxGeometry x="500" y="110" width="70" height="30" as="geometry" />
        </mxCell>
        <mxCell id="G_XHmd365qgL3xUWnn5l-30" value="Update Participant" style="ellipse;whiteSpace=wrap;html=1;rounded=0;shadow=0;strokeWidth=1;fillColor=#FAE5C7;fontSize=8;fontFamily=agave;strokeColor=#0F8B8D;fontColor=#143642;" parent="1" vertex="1">
          <mxGeometry x="500" y="150" width="70" height="30" as="geometry" />
        </mxCell>
        <mxCell id="G_XHmd365qgL3xUWnn5l-31" value="Delete Participant" style="ellipse;whiteSpace=wrap;html=1;rounded=0;shadow=0;strokeWidth=1;fillColor=#FAE5C7;fontSize=8;fontFamily=agave;strokeColor=#0F8B8D;fontColor=#143642;" parent="1" vertex="1">
          <mxGeometry x="500" y="190" width="70" height="30" as="geometry" />
        </mxCell>
        <mxCell id="G_XHmd365qgL3xUWnn5l-36" value="&lt;div style=&quot;font-size: 7px&quot;&gt;Create participant list&amp;nbsp;&lt;/div&gt;" style="ellipse;whiteSpace=wrap;html=1;rounded=0;shadow=0;strokeWidth=1;fillColor=#FAE5C7;fontSize=7;fontFamily=agave;strokeColor=#0F8B8D;fontColor=#143642;" parent="1" vertex="1">
          <mxGeometry x="610" y="105" width="70" height="30" as="geometry" />
        </mxCell>
        <mxCell id="G_XHmd365qgL3xUWnn5l-37" value="Import participant list" style="ellipse;whiteSpace=wrap;html=1;rounded=0;shadow=0;strokeWidth=1;fillColor=#FAE5C7;fontSize=7;fontFamily=agave;strokeColor=#0F8B8D;fontColor=#143642;" parent="1" vertex="1">
          <mxGeometry x="610" y="145" width="70" height="30" as="geometry" />
        </mxCell>
        <mxCell id="G_XHmd365qgL3xUWnn5l-43" style="edgeStyle=orthogonalEdgeStyle;rounded=0;orthogonalLoop=1;jettySize=auto;html=1;fontColor=#000000;" parent="1" source="G_XHmd365qgL3xUWnn5l-38" target="G_XHmd365qgL3xUWnn5l-41" edge="1">
          <mxGeometry relative="1" as="geometry" />
        </mxCell>
        <mxCell id="G_XHmd365qgL3xUWnn5l-38" value="&lt;font color=&quot;#000000&quot;&gt;&lt;b style=&quot;background-color: rgb(234 , 107 , 102)&quot;&gt;Participant&lt;/b&gt;&lt;/font&gt;" style="shape=umlActor;verticalLabelPosition=bottom;verticalAlign=top;html=1;outlineConnect=0;rounded=0;shadow=0;strokeWidth=1;fillColor=#FAE5C7;fontFamily=agave;strokeColor=#0F8B8D;fontColor=#143642;" parent="1" vertex="1">
          <mxGeometry x="80" y="375" width="30" height="60" as="geometry" />
        </mxCell>
        <mxCell id="Ja9MMm1ga6sStV4R5VPq-5" style="edgeStyle=orthogonalEdgeStyle;curved=1;sketch=0;jumpStyle=sharp;orthogonalLoop=1;jettySize=auto;html=1;entryX=0.014;entryY=0.414;entryDx=0;entryDy=0;entryPerimeter=0;dashed=1;fontColor=#000000;" edge="1" parent="1" source="G_XHmd365qgL3xUWnn5l-41" target="Ja9MMm1ga6sStV4R5VPq-1">
          <mxGeometry relative="1" as="geometry">
            <Array as="points">
              <mxPoint x="370" y="520" />
              <mxPoint x="552" y="520" />
            </Array>
          </mxGeometry>
        </mxCell>
        <mxCell id="G_XHmd365qgL3xUWnn5l-41" value="" style="rounded=0;whiteSpace=wrap;html=1;shadow=0;fontSize=8;strokeWidth=1;fillColor=#FAE5C7;dashed=1;strokeColor=#0F8B8D;fontFamily=agave;fontColor=#143642;" parent="1" vertex="1">
          <mxGeometry x="180" y="320" width="90" height="170" as="geometry" />
        </mxCell>
        <mxCell id="G_XHmd365qgL3xUWnn5l-46" value="Read Event&#39;s Responsible" style="ellipse;whiteSpace=wrap;html=1;rounded=0;shadow=0;strokeWidth=1;fillColor=#FAE5C7;fontSize=8;fontFamily=agave;strokeColor=#0F8B8D;fontColor=#143642;" parent="1" vertex="1">
          <mxGeometry x="190" y="345" width="70" height="30" as="geometry" />
        </mxCell>
        <mxCell id="G_XHmd365qgL3xUWnn5l-47" value="Read participations" style="ellipse;whiteSpace=wrap;html=1;rounded=0;shadow=0;strokeWidth=1;fillColor=#FAE5C7;fontSize=8;fontFamily=agave;strokeColor=#0F8B8D;fontColor=#143642;" parent="1" vertex="1">
          <mxGeometry x="190" y="390" width="70" height="30" as="geometry" />
        </mxCell>
        <mxCell id="Ja9MMm1ga6sStV4R5VPq-4" style="edgeStyle=orthogonalEdgeStyle;curved=1;sketch=0;jumpStyle=sharp;orthogonalLoop=1;jettySize=auto;html=1;dashed=1;fontColor=#000000;" edge="1" parent="1" source="G_XHmd365qgL3xUWnn5l-57">
          <mxGeometry relative="1" as="geometry">
            <mxPoint x="550" y="540" as="targetPoint" />
            <Array as="points">
              <mxPoint x="369" y="540" />
            </Array>
          </mxGeometry>
        </mxCell>
        <mxCell id="G_XHmd365qgL3xUWnn5l-57" value="" style="rounded=0;whiteSpace=wrap;html=1;shadow=0;fontSize=8;strokeWidth=1;fillColor=#FAE5C7;dashed=1;strokeColor=#0F8B8D;fontFamily=agave;fontColor=#143642;" parent="1" vertex="1">
          <mxGeometry x="324" y="570" width="90" height="170" as="geometry" />
        </mxCell>
        <mxCell id="G_XHmd365qgL3xUWnn5l-58" style="edgeStyle=orthogonalEdgeStyle;rounded=0;orthogonalLoop=1;jettySize=auto;html=1;fontColor=#000000;" parent="1" source="G_XHmd365qgL3xUWnn5l-59" target="G_XHmd365qgL3xUWnn5l-57" edge="1">
          <mxGeometry relative="1" as="geometry" />
        </mxCell>
        <mxCell id="G_XHmd365qgL3xUWnn5l-59" value="&lt;font color=&quot;#000000&quot;&gt;&lt;span style=&quot;background-color: rgb(234 , 107 , 102)&quot;&gt;&lt;b&gt;Responsible&lt;/b&gt;&lt;/span&gt;&lt;/font&gt;" style="shape=umlActor;verticalLabelPosition=bottom;verticalAlign=top;html=1;outlineConnect=0;rounded=0;shadow=0;strokeWidth=1;fillColor=#FAE5C7;fontFamily=agave;strokeColor=#0F8B8D;fontColor=#143642;" parent="1" vertex="1">
          <mxGeometry x="79" y="625" width="30" height="60" as="geometry" />
        </mxCell>
        <mxCell id="G_XHmd365qgL3xUWnn5l-60" value="Read Participants" style="ellipse;whiteSpace=wrap;html=1;rounded=0;shadow=0;strokeWidth=1;fillColor=#FAE5C7;fontSize=8;fontFamily=agave;strokeColor=#0F8B8D;fontColor=#143642;" parent="1" vertex="1">
          <mxGeometry x="335" y="620" width="70" height="30" as="geometry" />
        </mxCell>
        <mxCell id="G_XHmd365qgL3xUWnn5l-61" value="Read own events" style="ellipse;whiteSpace=wrap;html=1;rounded=0;shadow=0;strokeWidth=1;fillColor=#FAE5C7;fontSize=8;fontFamily=agave;strokeColor=#0F8B8D;fontColor=#143642;" parent="1" vertex="1">
          <mxGeometry x="335" y="660" width="70" height="30" as="geometry" />
        </mxCell>
        <mxCell id="G_XHmd365qgL3xUWnn5l-62" value="Project: &lt;span style=&quot;font-weight: normal&quot;&gt;W.D.C&amp;nbsp;&lt;/span&gt;" style="text;whiteSpace=wrap;html=1;fontColor=#000000;" parent="1" vertex="1">
          <mxGeometry x="710" y="760" width="90" height="30" as="geometry" />
        </mxCell>
        <mxCell id="Ja9MMm1ga6sStV4R5VPq-1" value="Authentificate" style="ellipse;whiteSpace=wrap;html=1;rounded=0;shadow=0;fontSize=12;strokeWidth=1;fillColor=#FAE5C7;strokeColor=#0F8B8D;fontFamily=agave;fontColor=#143642;" vertex="1" parent="1">
          <mxGeometry x="550" y="500" width="140" height="70" as="geometry" />
        </mxCell>
        <mxCell id="Ja9MMm1ga6sStV4R5VPq-7" value="&amp;lt;&amp;lt;include&amp;gt;&amp;gt;" style="edgeLabel;html=1;align=center;verticalAlign=middle;resizable=0;points=[];fontSize=8;fontFamily=agave;labelBackgroundColor=#DAD2D8;fontColor=#143642;" connectable="0" vertex="1" parent="1">
          <mxGeometry x="460.00180805012985" y="520.0034597827492" as="geometry" />
        </mxCell>
        <mxCell id="Ja9MMm1ga6sStV4R5VPq-8" value="&amp;lt;&amp;lt;include&amp;gt;&amp;gt;" style="edgeLabel;html=1;align=center;verticalAlign=middle;resizable=0;points=[];fontSize=8;fontFamily=agave;labelBackgroundColor=#DAD2D8;fontColor=#143642;" connectable="0" vertex="1" parent="1">
          <mxGeometry x="560.0018080501299" y="585.0034597827492" as="geometry">
            <mxPoint x="-92" y="-43" as="offset" />
          </mxGeometry>
        </mxCell>
      </root>
    </mxGraphModel>
  </diagram>
</mxfile>
